<?xml version="1.0" standalone="no"?>
<!DOCTYPE svg PUBLIC "-//W3C//DTD SVG 20010904//EN"
 "http://www.w3.org/TR/2001/REC-SVG-20010904/DTD/svg10.dtd">
<svg version="1.0" xmlns="http://www.w3.org/2000/svg"
 width="361.000000pt" height="361.000000pt" viewBox="0 0 361.000000 361.000000"
 preserveAspectRatio="xMidYMid meet">
<metadata>
Created by potrace 1.14, written by Peter Selinger 2001-2017
</metadata>
<g transform="translate(0.000000,361.000000) scale(0.100000,-0.100000)"
fill="#000000" stroke="none">
<path d="M13 2454 c-2 -6 16 -44 41 -83 25 -39 46 -75 47 -79 0 -4 15 -27 33
-52 l32 -44 380 -2 c520 -3 478 -2 462 -17 -13 -13 -217 -175 -298 -237 -25
-19 -47 -37 -50 -40 -3 -3 -57 -46 -120 -95 -63 -49 -120 -94 -126 -100 -6 -5
-85 -66 -175 -135 -90 -69 -172 -134 -184 -145 -18 -18 -20 -31 -18 -120 0
-55 1 -108 2 -118 1 -10 12 -29 26 -42 l24 -25 671 0 c616 0 670 1 670 17 0
13 -122 258 -136 272 -3 3 -179 5 -392 6 -213 0 -397 4 -409 8 -21 8 -15 14
61 77 47 38 95 78 108 88 22 19 166 138 254 209 21 17 53 43 69 57 172 142
343 281 362 293 32 21 41 62 37 168 -5 116 -10 134 -38 145 -38 14 -1327 9
-1333 -6z"/>
<path d="M1777 2176 c-180 -52 -325 -203 -356 -373 -14 -73 -11 -264 5 -332
31 -135 125 -255 246 -316 l71 -35 199 0 200 0 64 30 c114 55 207 165 246 295
33 107 30 322 -5 420 -50 137 -155 242 -295 296 -73 28 -298 37 -375 15z m315
-244 c98 -43 155 -106 184 -202 45 -152 -40 -322 -190 -379 -80 -31 -232 -25
-307 11 -179 86 -233 322 -110 477 36 45 80 75 148 101 66 25 211 21 275 -8z"/>
<path d="M3010 2173 c-229 -33 -393 -196 -425 -424 -18 -126 1 -281 47 -379
21 -45 91 -138 115 -153 6 -4 18 -13 25 -20 7 -7 36 -27 63 -43 50 -29 50 -29
244 -32 l193 -4 67 33 c78 38 173 129 213 205 72 133 69 267 -8 374 -47 65
-54 89 -43 142 12 53 47 91 85 91 16 0 22 2 14 7 -22 14 -95 -3 -124 -29 -56
-49 -70 -138 -36 -234 26 -74 25 -131 -4 -192 -55 -116 -151 -172 -306 -179
-183 -8 -305 71 -344 221 -35 134 -13 229 69 301 70 62 155 85 282 79 138 -6
184 -22 225 -77 l22 -31 13 44 c7 25 28 59 47 77 32 32 33 36 21 60 -50 96
-180 159 -340 164 -49 1 -101 1 -115 -1z"/>
</g>
</svg>
